<?xml version="1.0" encoding="UTF-8"?>
<svg xmlns="http://www.w3.org/2000/svg" xmlns:xlink="http://www.w3.org/1999/xlink" width="16px" height="16px" viewBox="0 0 16 16" version="1.1">
<g id="surface1">
<path style=" stroke:none;fill-rule:nonzero;fill:rgb(100%,75.686275%,29.411765%);fill-opacity:1;" d="M 1.816406 7.367188 L 0.800781 7.367188 C 0.730469 7.359375 0.660156 7.363281 0.589844 7.386719 C 0.523438 7.40625 0.460938 7.441406 0.410156 7.488281 C 0.355469 7.535156 0.3125 7.589844 0.285156 7.65625 C 0.257812 7.71875 0.242188 7.789062 0.242188 7.859375 C 0.242188 7.929688 0.257812 8 0.285156 8.0625 C 0.3125 8.128906 0.355469 8.1875 0.410156 8.230469 C 0.460938 8.277344 0.523438 8.3125 0.589844 8.335938 C 0.660156 8.355469 0.730469 8.359375 0.800781 8.351562 L 1.792969 8.351562 C 1.863281 8.359375 1.933594 8.355469 2 8.335938 C 2.066406 8.3125 2.128906 8.277344 2.183594 8.230469 C 2.234375 8.1875 2.277344 8.128906 2.308594 8.0625 C 2.335938 8 2.351562 7.929688 2.351562 7.859375 C 2.351562 7.789062 2.335938 7.71875 2.308594 7.65625 C 2.277344 7.589844 2.234375 7.535156 2.183594 7.488281 C 2.128906 7.441406 2.066406 7.40625 2 7.386719 C 1.933594 7.363281 1.863281 7.359375 1.792969 7.367188 "/>
<path style=" stroke:none;fill-rule:nonzero;fill:rgb(100%,75.686275%,29.411765%);fill-opacity:1;" d="M 14.992188 7.367188 L 14.007812 7.367188 C 13.9375 7.359375 13.867188 7.363281 13.800781 7.386719 C 13.734375 7.40625 13.671875 7.441406 13.617188 7.488281 C 13.566406 7.535156 13.523438 7.589844 13.492188 7.65625 C 13.464844 7.71875 13.449219 7.789062 13.449219 7.859375 C 13.449219 7.929688 13.464844 8 13.492188 8.0625 C 13.523438 8.128906 13.566406 8.1875 13.617188 8.230469 C 13.671875 8.277344 13.734375 8.3125 13.800781 8.335938 C 13.867188 8.355469 13.9375 8.359375 14.007812 8.351562 L 14.992188 8.351562 C 15.0625 8.359375 15.132812 8.355469 15.199219 8.335938 C 15.269531 8.3125 15.328125 8.277344 15.382812 8.230469 C 15.4375 8.1875 15.476562 8.128906 15.507812 8.0625 C 15.535156 8 15.550781 7.929688 15.550781 7.859375 C 15.550781 7.789062 15.535156 7.71875 15.507812 7.65625 C 15.476562 7.589844 15.4375 7.535156 15.382812 7.488281 C 15.328125 7.441406 15.269531 7.40625 15.199219 7.386719 C 15.132812 7.363281 15.0625 7.359375 14.992188 7.367188 Z M 14.992188 7.367188 "/>
<path style=" stroke:none;fill-rule:nonzero;fill:rgb(100%,75.686275%,29.411765%);fill-opacity:1;" d="M 7.910156 13.441406 C 7.847656 13.441406 7.78125 13.453125 7.722656 13.476562 C 7.660156 13.503906 7.605469 13.539062 7.5625 13.585938 C 7.515625 13.632812 7.480469 13.6875 7.453125 13.746094 C 7.429688 13.804688 7.417969 13.871094 7.417969 13.9375 L 7.417969 14.929688 C 7.417969 15.058594 7.46875 15.183594 7.5625 15.277344 C 7.65625 15.371094 7.78125 15.425781 7.910156 15.425781 C 8.042969 15.425781 8.167969 15.371094 8.261719 15.277344 C 8.355469 15.183594 8.40625 15.058594 8.40625 14.929688 L 8.40625 13.960938 C 8.40625 13.894531 8.394531 13.832031 8.371094 13.769531 C 8.34375 13.710938 8.308594 13.65625 8.261719 13.609375 C 8.214844 13.5625 8.160156 13.527344 8.101562 13.5 C 8.042969 13.476562 7.976562 13.464844 7.910156 13.464844 "/>
<path style=" stroke:none;fill-rule:nonzero;fill:rgb(100%,75.686275%,29.411765%);fill-opacity:1;" d="M 7.910156 0.289062 C 7.847656 0.289062 7.78125 0.300781 7.722656 0.324219 C 7.660156 0.351562 7.605469 0.386719 7.5625 0.433594 C 7.515625 0.480469 7.480469 0.535156 7.453125 0.59375 C 7.429688 0.652344 7.417969 0.71875 7.417969 0.785156 L 7.417969 1.777344 C 7.417969 1.90625 7.46875 2.03125 7.5625 2.125 C 7.65625 2.21875 7.78125 2.273438 7.910156 2.273438 C 8.042969 2.273438 8.167969 2.21875 8.261719 2.125 C 8.355469 2.03125 8.40625 1.90625 8.40625 1.777344 L 8.40625 0.785156 C 8.40625 0.71875 8.394531 0.652344 8.371094 0.59375 C 8.34375 0.535156 8.308594 0.480469 8.261719 0.433594 C 8.214844 0.386719 8.160156 0.351562 8.101562 0.324219 C 8.042969 0.300781 7.976562 0.289062 7.910156 0.289062 Z M 7.910156 0.289062 "/>
<path style=" stroke:none;fill-rule:nonzero;fill:rgb(100%,75.686275%,29.411765%);fill-opacity:1;" d="M 11.878906 13.75 L 11.382812 12.894531 C 11.355469 12.835938 11.3125 12.78125 11.261719 12.734375 C 11.207031 12.691406 11.148438 12.65625 11.082031 12.636719 C 11.019531 12.617188 10.949219 12.613281 10.882812 12.621094 C 10.8125 12.628906 10.75 12.648438 10.6875 12.683594 C 10.628906 12.71875 10.578125 12.761719 10.539062 12.816406 C 10.496094 12.875 10.46875 12.9375 10.453125 13.003906 C 10.4375 13.070312 10.4375 13.136719 10.449219 13.203125 C 10.464844 13.273438 10.488281 13.335938 10.527344 13.390625 L 11.023438 14.238281 C 11.054688 14.300781 11.097656 14.355469 11.148438 14.398438 C 11.199219 14.445312 11.261719 14.476562 11.324219 14.496094 C 11.390625 14.519531 11.460938 14.523438 11.527344 14.515625 C 11.59375 14.507812 11.660156 14.488281 11.71875 14.453125 C 11.777344 14.417969 11.828125 14.371094 11.871094 14.316406 C 11.910156 14.261719 11.9375 14.199219 11.953125 14.132812 C 11.96875 14.066406 11.96875 13.996094 11.957031 13.929688 C 11.945312 13.863281 11.917969 13.800781 11.878906 13.742188 "/>
<path style=" stroke:none;fill-rule:nonzero;fill:rgb(100%,75.686275%,29.411765%);fill-opacity:1;" d="M 5.296875 2.335938 L 4.800781 1.480469 C 4.769531 1.417969 4.726562 1.363281 4.675781 1.320312 C 4.625 1.273438 4.5625 1.242188 4.5 1.222656 C 4.433594 1.203125 4.363281 1.195312 4.296875 1.203125 C 4.230469 1.210938 4.164062 1.234375 4.105469 1.265625 C 4.046875 1.300781 3.996094 1.347656 3.953125 1.402344 C 3.914062 1.457031 3.886719 1.519531 3.871094 1.585938 C 3.855469 1.652344 3.855469 1.722656 3.867188 1.789062 C 3.878906 1.855469 3.90625 1.917969 3.945312 1.976562 L 4.441406 2.832031 C 4.46875 2.894531 4.511719 2.949219 4.5625 2.992188 C 4.617188 3.035156 4.675781 3.070312 4.742188 3.089844 C 4.804688 3.109375 4.875 3.117188 4.941406 3.109375 C 5.011719 3.101562 5.074219 3.078125 5.136719 3.042969 C 5.195312 3.011719 5.246094 2.964844 5.285156 2.910156 C 5.328125 2.855469 5.355469 2.792969 5.371094 2.726562 C 5.386719 2.660156 5.386719 2.589844 5.375 2.523438 C 5.359375 2.457031 5.335938 2.390625 5.296875 2.335938 Z M 5.296875 2.335938 "/>
<path style=" stroke:none;fill-rule:nonzero;fill:rgb(100%,75.686275%,29.411765%);fill-opacity:1;" d="M 14.289062 10.976562 L 13.433594 10.480469 C 13.375 10.441406 13.3125 10.414062 13.246094 10.402344 C 13.179688 10.390625 13.109375 10.390625 13.042969 10.40625 C 12.976562 10.421875 12.914062 10.449219 12.859375 10.492188 C 12.804688 10.53125 12.757812 10.582031 12.722656 10.640625 C 12.6875 10.699219 12.667969 10.765625 12.660156 10.832031 C 12.652344 10.902344 12.660156 10.96875 12.679688 11.035156 C 12.699219 11.101562 12.730469 11.160156 12.777344 11.210938 C 12.820312 11.265625 12.875 11.304688 12.9375 11.335938 L 13.792969 11.832031 C 13.847656 11.871094 13.914062 11.898438 13.980469 11.910156 C 14.046875 11.921875 14.113281 11.921875 14.179688 11.90625 C 14.25 11.890625 14.3125 11.863281 14.367188 11.820312 C 14.421875 11.78125 14.464844 11.730469 14.5 11.671875 C 14.535156 11.613281 14.554688 11.546875 14.566406 11.480469 C 14.570312 11.410156 14.566406 11.34375 14.546875 11.277344 C 14.527344 11.210938 14.492188 11.152344 14.449219 11.101562 C 14.402344 11.046875 14.347656 11.003906 14.289062 10.976562 Z M 14.289062 10.976562 "/>
<path style=" stroke:none;fill-rule:nonzero;fill:rgb(100%,75.686275%,29.411765%);fill-opacity:1;" d="M 2.878906 4.390625 L 2.023438 3.894531 C 1.96875 3.855469 1.902344 3.832031 1.835938 3.816406 C 1.769531 3.804688 1.699219 3.804688 1.632812 3.820312 C 1.566406 3.835938 1.503906 3.867188 1.449219 3.90625 C 1.394531 3.945312 1.347656 3.996094 1.316406 4.058594 C 1.28125 4.117188 1.257812 4.179688 1.25 4.25 C 1.242188 4.316406 1.25 4.386719 1.269531 4.449219 C 1.289062 4.515625 1.324219 4.574219 1.367188 4.628906 C 1.410156 4.679688 1.464844 4.722656 1.527344 4.75 L 2.382812 5.246094 C 2.441406 5.285156 2.503906 5.3125 2.570312 5.324219 C 2.636719 5.339844 2.707031 5.335938 2.773438 5.320312 C 2.839844 5.304688 2.902344 5.277344 2.957031 5.238281 C 3.011719 5.195312 3.058594 5.144531 3.09375 5.085938 C 3.125 5.027344 3.148438 4.960938 3.15625 4.894531 C 3.164062 4.828125 3.15625 4.757812 3.136719 4.691406 C 3.117188 4.628906 3.085938 4.566406 3.039062 4.515625 C 2.996094 4.464844 2.941406 4.421875 2.878906 4.390625 Z M 2.878906 4.390625 "/>
<path style=" stroke:none;fill-rule:nonzero;fill:rgb(100%,75.686275%,29.411765%);fill-opacity:1;" d="M 14.472656 4.070312 C 14.441406 4.015625 14.394531 3.964844 14.34375 3.925781 C 14.292969 3.886719 14.234375 3.855469 14.171875 3.839844 C 14.105469 3.820312 14.042969 3.816406 13.976562 3.824219 C 13.910156 3.832031 13.847656 3.855469 13.792969 3.886719 L 12.9375 4.382812 C 12.832031 4.453125 12.757812 4.5625 12.730469 4.683594 C 12.703125 4.804688 12.722656 4.933594 12.785156 5.042969 C 12.847656 5.152344 12.949219 5.230469 13.070312 5.269531 C 13.191406 5.304688 13.320312 5.292969 13.433594 5.238281 L 14.289062 4.742188 C 14.402344 4.679688 14.484375 4.570312 14.519531 4.445312 C 14.550781 4.320312 14.535156 4.1875 14.472656 4.070312 Z M 14.472656 4.070312 "/>
<path style=" stroke:none;fill-rule:nonzero;fill:rgb(100%,75.686275%,29.411765%);fill-opacity:1;" d="M 3.0625 10.664062 C 3 10.554688 2.894531 10.472656 2.769531 10.4375 C 2.644531 10.402344 2.511719 10.417969 2.398438 10.480469 L 1.542969 10.976562 C 1.441406 11.046875 1.367188 11.152344 1.339844 11.269531 C 1.308594 11.390625 1.328125 11.519531 1.386719 11.628906 C 1.449219 11.738281 1.546875 11.820312 1.664062 11.859375 C 1.78125 11.898438 1.910156 11.890625 2.023438 11.839844 L 2.878906 11.34375 C 2.992188 11.277344 3.074219 11.171875 3.109375 11.046875 C 3.144531 10.917969 3.128906 10.785156 3.0625 10.671875 "/>
<path style=" stroke:none;fill-rule:nonzero;fill:rgb(100%,75.686275%,29.411765%);fill-opacity:1;" d="M 11.695312 1.304688 C 11.582031 1.242188 11.449219 1.222656 11.324219 1.257812 C 11.195312 1.292969 11.089844 1.375 11.023438 1.488281 L 10.527344 2.34375 C 10.488281 2.402344 10.464844 2.464844 10.449219 2.53125 C 10.4375 2.597656 10.4375 2.667969 10.453125 2.734375 C 10.46875 2.800781 10.496094 2.863281 10.539062 2.917969 C 10.578125 2.972656 10.628906 3.019531 10.6875 3.054688 C 10.75 3.085938 10.8125 3.109375 10.882812 3.117188 C 10.949219 3.125 11.019531 3.117188 11.082031 3.097656 C 11.148438 3.078125 11.207031 3.042969 11.261719 3 C 11.3125 2.957031 11.355469 2.902344 11.382812 2.839844 L 11.878906 1.984375 C 11.945312 1.871094 11.960938 1.734375 11.925781 1.609375 C 11.890625 1.484375 11.808594 1.378906 11.695312 1.3125 "/>
<path style=" stroke:none;fill-rule:nonzero;fill:rgb(100%,75.686275%,29.411765%);fill-opacity:1;" d="M 5.113281 12.710938 C 5 12.648438 4.863281 12.632812 4.738281 12.667969 C 4.613281 12.699219 4.503906 12.78125 4.441406 12.894531 L 3.945312 13.75 C 3.902344 13.808594 3.875 13.871094 3.859375 13.941406 C 3.84375 14.007812 3.84375 14.082031 3.859375 14.148438 C 3.871094 14.21875 3.902344 14.28125 3.941406 14.339844 C 3.984375 14.394531 4.039062 14.441406 4.097656 14.476562 C 4.160156 14.511719 4.226562 14.53125 4.296875 14.539062 C 4.367188 14.546875 4.4375 14.539062 4.503906 14.515625 C 4.570312 14.492188 4.628906 14.457031 4.679688 14.410156 C 4.730469 14.363281 4.773438 14.304688 4.800781 14.238281 L 5.296875 13.382812 C 5.359375 13.269531 5.375 13.136719 5.34375 13.011719 C 5.308594 12.882812 5.226562 12.777344 5.113281 12.710938 Z M 5.113281 12.710938 "/>
<path style=" stroke:none;fill-rule:nonzero;fill:rgb(100%,75.686275%,29.411765%);fill-opacity:1;" d="M 7.910156 3.257812 C 7 3.257812 6.109375 3.527344 5.347656 4.035156 C 4.589844 4.542969 4 5.261719 3.652344 6.105469 C 3.304688 6.949219 3.214844 7.878906 3.394531 8.773438 C 3.574219 9.667969 4.015625 10.488281 4.660156 11.132812 C 5.308594 11.773438 6.132812 12.210938 7.027344 12.386719 C 7.921875 12.5625 8.851562 12.46875 9.691406 12.113281 C 10.535156 11.761719 11.25 11.167969 11.753906 10.40625 C 12.257812 9.644531 12.523438 8.753906 12.519531 7.839844 C 12.519531 6.617188 12.03125 5.449219 11.167969 4.585938 C 10.304688 3.71875 9.132812 3.234375 7.910156 3.230469 M 7.910156 11.464844 C 7.195312 11.464844 6.496094 11.25 5.898438 10.851562 C 5.300781 10.453125 4.839844 9.890625 4.5625 9.226562 C 4.289062 8.566406 4.21875 7.835938 4.359375 7.132812 C 4.496094 6.429688 4.84375 5.785156 5.347656 5.277344 C 5.855469 4.769531 6.5 4.425781 7.203125 4.285156 C 7.90625 4.144531 8.636719 4.21875 9.296875 4.492188 C 9.960938 4.765625 10.527344 5.230469 10.925781 5.828125 C 11.324219 6.421875 11.535156 7.125 11.535156 7.839844 C 11.535156 8.800781 11.152344 9.722656 10.472656 10.402344 C 9.792969 11.082031 8.871094 11.464844 7.910156 11.464844 Z M 7.910156 11.464844 "/>
<path style=" stroke:none;fill-rule:nonzero;fill:rgb(100%,75.686275%,29.411765%);fill-opacity:1;" d="M 7.910156 5.230469 C 7.21875 5.234375 6.554688 5.507812 6.0625 5.996094 C 5.570312 6.484375 5.289062 7.148438 5.28125 7.839844 C 5.28125 7.972656 5.332031 8.097656 5.425781 8.191406 C 5.519531 8.285156 5.644531 8.335938 5.777344 8.335938 C 5.90625 8.335938 6.035156 8.285156 6.125 8.191406 C 6.21875 8.097656 6.273438 7.972656 6.273438 7.839844 C 6.285156 7.414062 6.460938 7.007812 6.769531 6.707031 C 7.074219 6.410156 7.484375 6.242188 7.910156 6.238281 C 7.980469 6.25 8.054688 6.242188 8.121094 6.222656 C 8.1875 6.203125 8.25 6.167969 8.300781 6.121094 C 8.355469 6.074219 8.398438 6.015625 8.425781 5.953125 C 8.457031 5.886719 8.472656 5.820312 8.472656 5.746094 C 8.472656 5.675781 8.457031 5.609375 8.425781 5.542969 C 8.398438 5.480469 8.355469 5.421875 8.300781 5.375 C 8.25 5.328125 8.1875 5.292969 8.121094 5.273438 C 8.054688 5.253906 7.980469 5.246094 7.910156 5.257812 "/>
</g>
</svg>
